<svg xmlns="http://www.w3.org/2000/svg" xml:space="preserve" width="512px" height="512px" version="1.1" style="shape-rendering:geometricPrecision; text-rendering:geometricPrecision; image-rendering:optimizeQuality; fill-rule:evenodd; clip-rule:evenodd" viewBox="0 0 512 512" xmlns:xlink="http://www.w3.org/1999/xlink" xmlns:xodm="http://www.corel.com/coreldraw/odm/2003">
<defs>
<style type="text/css">
   
    .fil1 {fill:#00CCFF}
    .fil0 {fill:#1B74B9}
    .fil2 {fill:#F9F9F9}
   
  </style>
</defs>
<g id="Layer_x0020_1">
<metadata id="CorelCorpID_0Corel-Layer"></metadata>
<path class="fil0" d="M180.51 481.14c-21.26,-1.62 -40.63,-10.11 -55.9,-23.25l-10.91 10.91c18.11,15.9 41.34,26.08 66.81,27.76l0 -15.42zm130.17 -391.43l-11.02 -10.8c-15.93,18.13 -26.13,41.38 -27.81,66.87l15.43 0c1.63,-21.34 10.18,-40.77 23.4,-56.07zm-0.62 -21.19l11.04 10.82c15.24,-13.06 34.55,-21.49 55.73,-23.11l0 -15.42c-25.53,1.67 -48.71,11.86 -66.77,27.71zm16.91 25.03c-54.17,53.88 -16.18,143.51 59.72,142.45 44.65,-1.26 80.39,-37.78 80.39,-82.73 0,-73.94 -88.54,-109.24 -140.11,-59.72zm-39.7 67.2l-15.43 0c1.68,25.56 11.89,48.75 27.77,66.82l10.92 -10.92c-13.14,-15.27 -21.63,-34.64 -23.26,-55.9zm-30.2 -4.92c-0.64,-1.77 -0.33,-3.37 0,-5.14 1.36,-68.24 56.42,-123.31 124.66,-124.66 116.03,-1.17 173.34,137.42 91.24,218.54 -49.46,48.87 -130.25,48.05 -180.35,-3.05 -21.48,-22.31 -34.89,-52.43 -35.55,-85.69zm63.85 71.22l-10.91 10.91c18.12,15.9 41.35,26.09 66.82,27.77l0 -15.42c-21.26,-1.63 -40.64,-10.12 -55.91,-23.26zm70.88 23.25l0 15.43c25.43,-1.69 48.63,-11.93 66.73,-27.84l-10.83 -10.84c-15.27,13.14 -34.64,21.63 -55.9,23.25zm66.3 -33.65l10.83 10.84c15.92,-18.1 26.15,-41.3 27.84,-66.74l-15.42 0c-1.62,21.26 -10.12,40.64 -23.25,55.9zm23.28 -70.45l15.43 0c-1.61,-25.52 -11.81,-48.81 -27.73,-66.99l-10.94 10.72c13.2,15.36 21.7,34.87 23.24,56.27zm-33.63 -66.67l10.95 -10.74c-18.23,-16.08 -41.65,-26.4 -67.32,-28.01l0 15.42c21.45,1.55 40.99,10.08 56.37,23.33zm-11.45 114.91l-103.98 0c-3.74,0 -6.65,-2.49 -7.07,-6.24l-8.32 -56.98c-0.9,-6.27 6.68,-10.98 12.06,-7.07l29.95 23.71 19.13 -45.75c2.64,-5.76 10.71,-6.14 13.31,0l19.14 45.75 29.94 -23.71c5.03,-3.66 13,0.59 12.06,7.07l-8.31 56.98c-1.25,3.75 -4.16,6.24 -7.91,6.24zm-97.74 -14.55l91.5 0 4.99 -32.86 -22.87 18.3c-3.63,2.81 -9.42,1.52 -11.23,-2.91l-16.22 -38.68 -16.22 38.68c-1.7,4.15 -7.53,5.78 -11.23,2.91l-22.88 -18.3 4.16 32.86zm-215.86 65.3c-67.38,0 -122.7,-54.91 -122.7,-122.29 0,-67.37 54.9,-122.28 122.7,-122.28 67.38,0 122.28,54.9 122.28,122.28 0,67.38 -54.9,122.29 -122.28,122.29zm0 -230.01c-59.48,0 -108.14,48.25 -108.14,107.72 0,59.48 48.24,107.73 108.14,107.73 59.47,0 107.72,-48.25 107.72,-107.73 0,-59.47 -48.66,-107.72 -107.72,-107.72zm49.49 147.24l-99.82 0c-3.74,0 -6.66,-2.5 -7.07,-6.24l-7.9 -54.9c-0.9,-6.27 6.67,-11 12.06,-7.07l28.28 22.46 18.3 -43.26c2.64,-5.73 10.73,-6.17 13.31,0l17.89 43.67 28.28 -22.46c5.03,-3.67 12.99,0.59 12.06,7.07l-7.9 54.9c-0.83,3.33 -3.74,5.83 -7.49,5.83zm-93.16 -14.56l86.92 0 4.58 -30.36 -21.63 17.05c-3.64,2.8 -9.4,1.52 -11.23,-2.91l-15.39 -36.19 -15.39 36.19c-1.71,4.15 -7.51,5.77 -11.23,2.91l-21.63 -17.05 5 30.36zm43.67 68.63c-51.58,0 -94,-42.01 -94,-93.59 0,-51.57 42.01,-93.58 94,-93.58 51.57,0 93.58,42.01 93.58,93.58 0,51.58 -42.01,93.59 -93.58,93.59zm0 -172.61c-43.68,0 -79.44,35.35 -79.44,79.02 0,43.68 35.35,79.03 79.44,79.03 43.67,0 79.02,-35.35 79.02,-79.03 0,-43.67 -35.77,-79.02 -79.02,-79.02zm-8.29 276.62l-11.01 -11.01c-15.93,18.18 -26.18,41.5 -27.87,67.13l15.43 0c1.63,-21.37 10.2,-40.82 23.45,-56.12zm-0.62 -21.41l11.05 11.04c15.23,-13.03 34.51,-21.45 55.67,-23.07l0 -15.83c-25.42,1.69 -48.61,11.92 -66.72,27.86zm16.86 25.31c-54.09,53.74 -16.17,143.5 59.73,142.44 44.64,-1.26 80.39,-37.78 80.39,-82.74 0,-73.94 -88.56,-109.24 -140.12,-59.7zm-39.69 67.19l-15.43 0c1.68,25.56 11.89,48.75 27.77,66.81l10.91 -10.91c-13.13,-15.27 -21.63,-34.64 -23.25,-55.9zm104.52 104.98c25.77,-1.69 49.13,-12.05 67.26,-28.16l-10.85 -10.84c-15.37,13.31 -34.96,21.93 -56.41,23.57l0 15.43zm77.6 -38.61c15.68,-18.05 25.71,-41.11 27.38,-66.37l-15.37 0c-1.48,21.09 -9.84,40.33 -22.83,55.54l10.82 10.83zm6.86 14.3c-83.06,83.76 -219.67,23.18 -219.21,-88.35 0.47,-113.59 138.37,-171.65 219.58,-87.6 46.55,48.17 46.78,126.98 -0.37,175.95zm20.57 -95.64c-1.51,-25.5 -11.58,-48.72 -27.37,-66.85l-11.17 11.17c13.03,15.23 21.45,34.52 23.07,55.68l15.47 0zm-37.72 -77.29c-18.17,-16.09 -41.58,-26.41 -67.31,-28.1l0 15.83c21.37,1.64 40.82,10.21 56.12,23.45l11.19 -11.18zm-22.39 125.95l-104.39 0c-3.75,0 -6.66,-2.5 -7.07,-6.24l-8.32 -57.4c-0.91,-6.27 6.67,-10.98 12.06,-7.07l29.95 23.71 19.13 -45.33c2.65,-5.76 10.7,-6.14 13.31,0l19.13 45.33 29.95 -23.71c5.03,-3.66 12.99,0.59 12.06,7.07l-8.32 57.4c-0.83,3.74 -4.16,6.24 -7.49,6.24zm-98.15 -14.56l91.5 0 4.99 -33.27 -22.88 18.3c-3.63,2.81 -9.4,1.51 -11.23,-2.91l-16.22 -38.27 -16.22 38.27c-1.71,4.16 -7.51,5.76 -11.23,2.91l-23.29 -18.3 4.58 33.27z" id="id_101" style="fill: rgb(23, 195, 230);"></path>
<path class="fil1" d="M391.38 102.11l19.14 45.75 29.94 -23.71c5.03,-3.66 13,0.59 12.06,7.07l-8.31 56.98c-1.25,3.75 -4.16,6.24 -7.91,6.24l-103.98 0c-3.74,0 -6.65,-2.49 -7.07,-6.24l-8.32 -56.98c-0.9,-6.27 6.68,-10.98 12.06,-7.07l29.95 23.71 19.13 -45.75c2.64,-5.76 10.71,-6.14 13.31,0zm-64.41 -8.56c-54.17,53.88 -16.18,143.51 59.72,142.45 44.65,-1.26 80.39,-37.78 80.39,-82.73 0,-73.94 -88.54,-109.24 -140.11,-59.72z" id="id_102" style="fill: rgb(0, 8, 150);"></path>
<path class="fil1" d="M391.38 56.2c21.45,1.55 40.99,10.08 56.37,23.33l10.95 -10.74c-18.23,-16.08 -41.65,-26.4 -67.32,-28.01l0 15.42z" id="id_103" style="fill: rgb(0, 8, 150);"></path>
<path class="fil1" d="M469.08 79.21l-10.94 10.72c13.2,15.36 21.7,34.87 23.24,56.27l15.43 0c-1.61,-25.52 -11.81,-48.81 -27.73,-66.99z" id="id_104" style="fill: rgb(0, 7, 145);"></path>
<path class="fil1" d="M496.77 160.75l-15.42 0c-1.62,21.26 -10.12,40.64 -23.25,55.9l10.83 10.84c15.92,-18.1 26.15,-41.3 27.84,-66.74z" id="id_105" style="fill: rgb(0, 7, 148);"></path>
<path class="fil1" d="M447.7 227.05c-15.27,13.14 -34.64,21.63 -55.9,23.25l0 15.43c25.43,-1.69 48.63,-11.93 66.73,-27.84l-10.83 -10.84z" id="id_106" style="fill: rgb(0, 7, 145);"></path>
<path class="fil1" d="M376.83 250.31c-21.26,-1.63 -40.64,-10.12 -55.91,-23.26l-10.91 10.91c18.12,15.9 41.35,26.09 66.82,27.77l0 -15.42z" id="id_107" style="fill: rgb(0, 7, 148);"></path>
<path class="fil1" d="M310.53 216.65c-13.14,-15.27 -21.63,-34.64 -23.26,-55.9l-15.43 0c1.68,25.56 11.89,48.75 27.77,66.82l10.92 -10.92z" id="id_108" style="fill: rgb(0, 8, 153);"></path>
<path class="fil1" d="M287.28 145.78c1.63,-21.34 10.18,-40.77 23.4,-56.07l-11.02 -10.8c-15.93,18.13 -26.13,41.38 -27.81,66.87l15.43 0z" id="id_109" style="fill: rgb(0, 7, 148);"></path>
<path class="fil1" d="M321.1 79.34c15.24,-13.06 34.55,-21.49 55.73,-23.11l0 -15.42c-25.53,1.67 -48.71,11.86 -66.77,27.71l11.04 10.82z" id="id_110" style="fill: rgb(0, 7, 145);"></path>
<path class="fil2" d="M384.73 123.74l-16.22 38.68c-1.7,4.15 -7.53,5.78 -11.23,2.91l-22.88 -18.3 4.16 32.86 91.5 0 4.99 -32.86 -22.87 18.3c-3.63,2.81 -9.42,1.52 -11.23,-2.91l-16.22 -38.68z" id="id_111" style="fill: rgb(255, 255, 255);"></path>
<path class="fil1" d="M230.42 122.9c0,-59.47 -48.66,-107.72 -107.72,-107.72 -59.48,0 -108.14,48.25 -108.14,107.72 0,59.48 48.24,107.73 108.14,107.73 59.47,0 107.72,-48.25 107.72,-107.73zm-107.72 -93.58c51.57,0 93.58,42.01 93.58,93.58 0,51.58 -42.01,93.59 -93.58,93.59 -51.58,0 -94,-42.01 -94,-93.59 0,-51.57 42.01,-93.58 94,-93.58z" id="id_112" style="fill: rgb(0, 7, 148);"></path>
<path class="fil2" d="M137.67 131.64l-15.39 -36.19 -15.39 36.19c-1.71,4.15 -7.51,5.77 -11.23,2.91l-21.63 -17.05 5 30.36 86.92 0 4.58 -30.36 -21.63 17.05c-3.64,2.8 -9.4,1.52 -11.23,-2.91z" id="id_113"></path>
<path class="fil1" d="M129.35 73.41l17.89 43.67 28.28 -22.46c5.03,-3.67 12.99,0.59 12.06,7.07l-7.9 54.9c-0.83,3.33 -3.74,5.83 -7.49,5.83l-99.82 0c-3.74,0 -6.66,-2.5 -7.07,-6.24l-7.9 -54.9c-0.9,-6.27 6.67,-11 12.06,-7.07l28.28 22.46 18.3 -43.26c2.64,-5.73 10.73,-6.17 13.31,0zm-6.65 128.52c43.67,0 79.02,-35.35 79.02,-79.03 0,-43.67 -35.77,-79.02 -79.02,-79.02 -43.68,0 -79.44,35.35 -79.44,79.02 0,43.68 35.35,79.03 79.44,79.03z" id="id_114" style="fill: rgb(0, 8, 153);"></path>
<path class="fil2" d="M188.41 354.57l-16.22 38.27c-1.71,4.16 -7.51,5.76 -11.23,2.91l-23.29 -18.3 4.58 33.27 91.5 0 4.99 -33.27 -22.88 18.3c-3.63,2.81 -9.4,1.51 -11.23,-2.91l-16.22 -38.27z" id="id_115"></path>
<path class="fil1" d="M195.07 332.95l19.13 45.33 29.95 -23.71c5.03,-3.66 12.99,0.59 12.06,7.07l-8.32 57.4c-0.83,3.74 -4.16,6.24 -7.49,6.24l-104.39 0c-3.75,0 -6.66,-2.5 -7.07,-6.24l-8.32 -57.4c-0.91,-6.27 6.67,-10.98 12.06,-7.07l29.95 23.71 19.13 -45.33c2.65,-5.76 10.7,-6.14 13.31,0zm-64.42 -8.55c-54.09,53.74 -16.17,143.5 59.73,142.44 44.64,-1.26 80.39,-37.78 80.39,-82.74 0,-73.94 -88.56,-109.24 -140.12,-59.7z" id="id_116" style="fill: rgb(0, 8, 156);"></path>
<path class="fil1" d="M195.48 287.06c21.37,1.64 40.82,10.21 56.12,23.45l11.19 -11.18c-18.17,-16.09 -41.58,-26.41 -67.31,-28.1l0 15.83z" id="id_117" style="fill: rgb(0, 8, 153);"></path>
<path class="fil1" d="M261.97 320.94c13.03,15.23 21.45,34.52 23.07,55.68l15.47 0c-1.51,-25.5 -11.58,-48.72 -27.37,-66.85l-11.17 11.17z" id="id_118" style="fill: rgb(0, 8, 153);"></path>
<path class="fil1" d="M285.09 391.59c-1.48,21.09 -9.84,40.33 -22.83,55.54l10.82 10.83c15.68,-18.05 25.71,-41.11 27.38,-66.37l-15.37 0z" id="id_119" style="fill: rgb(0, 8, 153);"></path>
<path class="fil1" d="M251.89 457.57c-15.37,13.31 -34.96,21.93 -56.41,23.57l0 15.43c25.77,-1.69 49.13,-12.05 67.26,-28.16l-10.85 -10.84z" id="id_120" style="fill: rgb(0, 8, 153);"></path>
<path class="fil1" d="M180.51 481.14c-21.26,-1.62 -40.63,-10.11 -55.9,-23.25l-10.91 10.91c18.11,15.9 41.34,26.08 66.81,27.76l0 -15.42z" id="id_121" style="fill: rgb(0, 8, 163);"></path>
<path class="fil1" d="M114.21 447.49c-13.13,-15.27 -21.63,-34.64 -23.25,-55.9l-15.43 0c1.68,25.56 11.89,48.75 27.77,66.81l10.91 -10.91z" id="id_122" style="fill: rgb(0, 9, 171);"></path>
<path class="fil1" d="M90.96 376.62c1.63,-21.37 10.2,-40.82 23.45,-56.12l-11.01 -11.01c-15.93,18.18 -26.18,41.5 -27.87,67.13l15.43 0z" id="id_123" style="fill: rgb(0, 9, 173);"></path>
<path class="fil1" d="M124.84 310.13c15.23,-13.03 34.51,-21.45 55.67,-23.07l0 -15.83c-25.42,1.69 -48.61,11.92 -66.72,27.86l11.05 11.04z" id="id_124" style="fill: rgb(0, 9, 173);"></path>
</g>
</svg>