<svg width="64" height="64" viewBox="0 0 64 64" fill="none" xmlns="http://www.w3.org/2000/svg">
<path d="M61 33H59V30C59 28.9391 58.5786 27.9217 57.8284 27.1716C57.0783 26.4214 56.0609 26 55 26C53.9391 26 52.9217 26.4214 52.1716 27.1716C51.4214 27.9217 51 28.9391 51 30C51 28.9391 50.5786 27.9217 49.8284 27.1716C49.0783 26.4214 48.0609 26 47 26C46.2957 26.0041 45.6053 26.1961 45 26.556V20C44.9984 18.6744 44.4711 17.4036 43.5338 16.4662C42.5964 15.5289 41.3256 15.0016 40 15H35.587C36.9028 14.2148 37.9247 13.0195 38.4957 11.5976C39.0668 10.1757 39.1555 8.60568 38.7482 7.12848C38.341 5.65129 37.4603 4.34852 36.2413 3.4201C35.0223 2.49168 33.5323 1.98889 32 1.98889C30.4677 1.98889 28.9777 2.49168 27.7587 3.4201C26.5397 4.34852 25.659 5.65129 25.2517 7.12848C24.8445 8.60568 24.9332 10.1757 25.5043 11.5976C26.0753 13.0195 27.0972 14.2148 28.413 15H24C22.6744 15.0016 21.4036 15.5289 20.4662 16.4662C19.5289 17.4036 19.0016 18.6744 19 20V26C17.9391 26 16.9217 26.4214 16.1716 27.1716C15.4214 27.9217 15 28.9391 15 30V33H12V30C12 28.9391 11.5786 27.9217 10.8284 27.1716C10.0783 26.4214 9.06087 26 8 26C6.93913 26 5.92172 26.4214 5.17157 27.1716C4.42143 27.9217 4 28.9391 4 30V33H3C2.73478 33 2.48043 33.1054 2.29289 33.2929C2.10536 33.4804 2 33.7348 2 34V61C2 61.013 2.007 61.024 2.007 61.037C2.00963 61.1555 2.03298 61.2726 2.076 61.383V61.383C2.076 61.391 2.086 61.397 2.09 61.406C2.13488 61.5038 2.19533 61.5936 2.269 61.672C2.29323 61.6966 2.31894 61.7196 2.346 61.741C2.40883 61.7967 2.47877 61.8437 2.554 61.881C2.58468 61.898 2.61641 61.913 2.649 61.926C2.76042 61.9722 2.87943 61.9973 3 62H61C61.2652 62 61.5196 61.8946 61.7071 61.7071C61.8946 61.5196 62 61.2652 62 61V34C62 33.7348 61.8946 33.4804 61.7071 33.2929C61.5196 33.1054 61.2652 33 61 33ZM27 9C27 8.01109 27.2932 7.0444 27.8427 6.22215C28.3921 5.3999 29.173 4.75904 30.0866 4.3806C31.0002 4.00216 32.0055 3.90315 32.9755 4.09607C33.9454 4.289 34.8363 4.7652 35.5355 5.46447C36.2348 6.16373 36.711 7.05464 36.9039 8.02455C37.0969 8.99445 36.9978 9.99979 36.6194 10.9134C36.241 11.827 35.6001 12.6079 34.7779 13.1573C33.9556 13.7068 32.9889 14 32 14C30.6744 13.9984 29.4036 13.4711 28.4662 12.5338C27.5289 11.5964 27.0016 10.3256 27 9V9ZM55 28C55.5304 28 56.0391 28.2107 56.4142 28.5858C56.7893 28.9609 57 29.4696 57 30V33H53V30C53 29.4696 53.2107 28.9609 53.5858 28.5858C53.9609 28.2107 54.4696 28 55 28ZM51 58.586L48 55.586V35H51V58.586ZM9 35H12V58.586L9 55.586V35ZM14 35H24V35.142C23.1439 35.363 22.3851 35.8615 21.8423 36.5596C21.2995 37.2576 21.0033 38.1158 21 39V42H20C19.7348 42 19.4804 42.1054 19.2929 42.2929C19.1054 42.4804 19 42.7348 19 43V60H14V35ZM27 42H23V39C23 38.4696 23.2107 37.9609 23.5858 37.5858C23.9609 37.2107 24.4696 37 25 37C25.5304 37 26.0391 37.2107 26.4142 37.5858C26.7893 37.9609 27 38.4696 27 39V42ZM21 44H24V55.586L21 58.586V44ZM26 44H29V58.586L26 55.586V44ZM31 44H41V60H31V44ZM41 42H40V39C39.9963 38.1181 39.6986 37.2627 39.154 36.569L39.182 36.12C39.6975 36.5601 40.3285 36.843 41 36.935V42ZM38 39V42H34V39C34 38.4696 34.2107 37.9609 34.5858 37.5858C34.9609 37.2107 35.4696 37 36 37C36.5304 37 37.0391 37.2107 37.4142 37.5858C37.7893 37.9609 38 38.4696 38 39ZM43 43V35H46V55.586L43 58.586V43ZM47 28C47.5304 28 48.0391 28.2107 48.4142 28.5858C48.7893 28.9609 49 29.4696 49 30V33H45V30C45 29.4696 45.2107 28.9609 45.5858 28.5858C45.9609 28.2107 46.4696 28 47 28ZM21 20C21 19.2044 21.3161 18.4413 21.8787 17.8787C22.4413 17.3161 23.2044 17 24 17H40C40.7956 17 41.5587 17.3161 42.1213 17.8787C42.6839 18.4413 43 19.2044 43 20V33H42C41.7348 33 41.4804 33.1054 41.2929 33.2929C41.1054 33.4804 41 33.7348 41 34V34.908C40.7085 34.805 40.456 34.6144 40.277 34.3624C40.098 34.1103 40.0013 33.8091 40 33.5V23C40.0041 22.8687 39.9822 22.7378 39.9357 22.615C39.8892 22.4921 39.819 22.3796 39.729 22.2838C39.5473 22.0905 39.2962 21.9772 39.031 21.969C38.8997 21.9649 38.7688 21.9868 38.646 22.0333C38.5231 22.0798 38.4105 22.15 38.3148 22.24C38.1215 22.4217 38.0082 22.6728 38 22.938L37.233 35.215C36.836 35.0784 36.4198 35.0058 36 35C34.9391 35 33.9217 35.4214 33.1716 36.1716C32.4214 36.9217 32 37.9391 32 39V42H29V39C28.9977 38.2948 28.8082 37.6029 28.4511 36.9948C28.0939 36.3868 27.5818 35.8844 26.967 35.539L26 22.923C25.9939 22.7936 25.962 22.6668 25.9062 22.55C25.8504 22.4331 25.7718 22.3286 25.6749 22.2426C25.5781 22.1566 25.4651 22.0908 25.3425 22.0492C25.2199 22.0075 25.0902 21.9908 24.961 22C24.7026 22.0101 24.4582 22.1199 24.279 22.3063C24.0998 22.4928 23.9998 22.7414 24 23V33H23V30C22.9978 29.301 22.8118 28.6149 22.4608 28.0104C22.1098 27.4059 21.606 26.9044 21 26.556V20ZM17 30C17 29.4696 17.2107 28.9609 17.5858 28.5858C17.9609 28.2107 18.4696 28 19 28C19.5304 28 20.0391 28.2107 20.4142 28.5858C20.7893 28.9609 21 29.4696 21 30V33H17V30ZM6 30C6 29.4696 6.21071 28.9609 6.58579 28.5858C6.96086 28.2107 7.46957 28 8 28C8.53043 28 9.03914 28.2107 9.41421 28.5858C9.78929 28.9609 10 29.4696 10 30V33H6V30ZM7 35V55.586L4 58.586V35H7ZM5.414 60L8 57.414L10.586 60H5.414ZM22.414 60L24 58.414V60H22.414ZM26 60V58.414L27.586 60H26ZM44.414 60L47 57.414L49.586 60H44.414ZM60 60H53V35H60V60Z" fill="url(#paint0_linear_10_37794)" id="id_101"></path>
<defs>
<linearGradient id="paint0_linear_10_37794" x1="8.925" y1="22.18" x2="55.08" y2="68.334" gradientUnits="userSpaceOnUse">
<stop stop-color="#00147a" id="id_102"></stop>
<stop offset="0.437" stop-color="#001475" id="id_103"></stop>
<stop offset="1" stop-color="#00147a" id="id_104"></stop>
</linearGradient>
</defs>
</svg>